<svg width="54" height="53" viewBox="0 0 54 53" fill="none" xmlns="http://www.w3.org/2000/svg">
<path d="M27.1476 52.765C41.7183 52.765 53.5301 40.9531 53.5301 26.3825C53.5301 11.8118 41.7183 0 27.1476 0C12.577 0 0.765137 11.8118 0.765137 26.3825C0.765137 40.9531 12.577 52.765 27.1476 52.765Z" fill="url(#paint0_linear_260_167)"/>
<path fill-rule="evenodd" clip-rule="evenodd" d="M12.7074 26.104C20.3984 22.7531 25.527 20.544 28.0931 19.4767C35.4198 16.4293 36.9422 15.8999 37.9345 15.8824C38.1527 15.8786 38.6407 15.9327 38.9568 16.1892C39.2237 16.4057 39.2971 16.6983 39.3323 16.9036C39.3674 17.109 39.4112 17.5767 39.3764 17.9422C38.9794 22.1139 37.2614 32.2375 36.3874 36.9099C36.0176 38.8869 35.2894 39.5498 34.5844 39.6147C33.0523 39.7557 31.8889 38.6022 30.405 37.6295C28.083 36.1074 26.7712 35.1599 24.5173 33.6746C21.9125 31.9581 23.6011 31.0147 25.0856 29.4728C25.4741 29.0693 32.2244 22.9293 32.3551 22.3724C32.3714 22.3027 32.3866 22.043 32.2323 21.9059C32.0781 21.7688 31.8504 21.8157 31.6861 21.853C31.4532 21.9058 27.7438 24.3576 20.5578 29.2084C19.5049 29.9314 18.5512 30.2836 17.6967 30.2652C16.7547 30.2448 14.9427 29.7326 13.5957 29.2947C11.9435 28.7576 10.6303 28.4737 10.7447 27.5616C10.8042 27.0865 11.4585 26.6006 12.7074 26.104Z" fill="white"/>
<defs>
<linearGradient id="paint0_linear_260_167" x1="27.1476" y1="0" x2="27.1476" y2="52.3736" gradientUnits="userSpaceOnUse">
<stop stop-color="#2CA4E0"/>
<stop offset="1" stop-color="#0D83BF"/>
</linearGradient>
</defs>
</svg>
